<svg xmlns="http://www.w3.org/2000/svg" fill="none" viewBox="0 0 283 64"><path fill="black" d="M141 16c-11 0-19 7-19 18s9 18 20 18c7 0 13-3 16-7l-7-5c-2 3-5 4-9 4-5 0-9-3-10-7h28v-3c0-11-8-18-19-18zm-9 15c1-4 4-7 9-7s8 3 9 7h-18zm117-15c-11 0-19 7-19 18s9 18 20 18c7 0 13-3 16-7l-7-5c-2 3-5 4-9 4-5 0-9-3-10-7h28v-3c0-11-8-18-19-18zm-9 15c1-4 4-7 9-7s8 3 9 7h-18zm-39-15c-5 0-8 2-10 5v-4h-9v35h9V29c0-4 3-6 6-6 4 0 6 3 6 6v17h9V28c0-8-5-12-11-12zm-29 0c-11 0-19 7-19 18s9 18 20 18c7 0 13-3 16-7l-7-5c-2 3-5 4-9 4-5 0-9-3-10-7h28v-3c0-11-8-18-19-18zm-9 15c1-4 4-7 9-7s8 3 9 7h-18zM47 16c-11 0-19 7-19 18s9 18 20 18c7 0 13-3 16-7l-7-5c-2 3-5 4-9 4-5 0-9-3-10-7h28v-3c0-11-8-18-19-18zm-9 15c1-4 4-7 9-7s8 3 9 7H38zM0 1l17 31-17 31h20l8-15 9 15h20L40 32 56 1H36l-8 15-9-15z"/></svg>
